<svg width="35" height="44" viewBox="0 0 35 44" fill="none" xmlns="http://www.w3.org/2000/svg">
<path fill-rule="evenodd" clip-rule="evenodd" d="M27.1134 0.987775C23.9776 5.98762 20.9677 8.73068 16.489 10.6706C14.936 11.3432 13.141 11.9565 11.7804 12.2795C10.6665 12.544 11.4161 11.3931 11.9929 10.5335C13.5134 8.26762 13.8168 6.23671 14.1689 3.55423C14.2968 2.57947 14.0689 2.6048 12.8037 3.70595C10.0779 6.07778 6.98076 9.01584 3.7311 8.95492L2.46735 9.01584L2.64788 12.6989V16.5697H16.9896H31.3312L31.4291 16.0512C31.6187 15.0462 31.5348 10.0735 31.3043 8.65591C30.8484 5.85194 30.1348 3.62518 28.9856 1.41948C28.0446 -0.386486 27.9841 -0.400349 27.1134 0.987775Z" fill="#5C2D91"/>
<path d="M25.8696 22.1337L23.1304 21.5177L25.2609 24.5975V34.1447L32.5652 27.9852V17.514L29.2174 18.7459L25.8696 22.1337Z" fill="#5C2D91"/>
<path d="M8.82612 22.1337L11.5652 21.5177L9.43481 24.5975V34.1447L2.13046 27.9852V17.514L5.47829 18.7459L8.82612 22.1337Z" fill="#5C2D91"/>
<path fill-rule="evenodd" clip-rule="evenodd" d="M10.3478 25.2134L12.7826 21.5177L14.3043 22.4417H20.3913L21.913 21.5177L24.3478 25.2134V39.0724L22.5217 41.8442L20.3913 44H14.3043L12.1739 41.8442L10.3478 39.0724V25.2134Z" fill="#5C2D91"/>
<path d="M25.2609 39.9964L29.2174 35.9927V31.989L25.2609 35.3767V39.9964Z" fill="#5C2D91"/>
<path d="M9.43475 39.9964L5.47823 35.9927V31.989L9.43475 35.3767V39.9964Z" fill="#5C2D91"/>
<path fill-rule="evenodd" clip-rule="evenodd" d="M10.9525 15.6762L13.3826 12.9146H21.2803L23.7104 15.6762L20.0653 21.1994H14.9014L10.9525 15.6762Z" fill="#5C2D91"/>
<path d="M14.913 21.2098L1.82609 16.2821L0 8.58273L11.2609 9.50666L10.8322 11.7572L15.2174 21.2098H14.913Z" fill="#5C2D91"/>
<path d="M20.087 21.2098L33.1739 16.2821L35 8.58273L23.4348 9.50666L19.7826 21.2098H20.087Z" fill="#5C2D91"/>
</svg>
