<svg width="219" height="44" viewBox="0 0 219 44" fill="none" xmlns="http://www.w3.org/2000/svg">
<path d="M44.6 34.488C44.6 34.808 44.792 35 45.112 35H48.44C48.792 35 48.952 34.808 48.952 34.488V26.424H52.792C55.8 26.424 57.4 24.792 57.4 21.816V14.008C57.4 11 55.8 9.4 52.792 9.4H45.112C44.792 9.4 44.6 9.592 44.6 9.912V34.488ZM48.952 22.2V13.624H51.768C52.632 13.624 53.048 14.072 53.048 14.904V20.92C53.048 21.72 52.632 22.2 51.768 22.2H48.952ZM73.4395 14.008C73.4395 11 71.8395 9.4 68.8315 9.4H60.7995C60.4795 9.4 60.2875 9.592 60.2875 9.912V34.488C60.2875 34.808 60.4795 35 60.7995 35H64.1275C64.4475 35 64.6395 34.808 64.6395 34.488V26.424H66.8475L68.9915 34.552C69.0555 34.84 69.2155 35 69.5355 35H72.8635C73.2155 35 73.4075 34.808 73.3115 34.424L71.1035 26.04C72.6395 25.368 73.4395 23.96 73.4395 21.816V14.008ZM64.6395 22.2V13.624H67.8075C68.6395 13.624 69.0875 14.072 69.0875 14.904V20.92C69.0875 21.752 68.6395 22.2 67.8075 22.2H64.6395ZM77.1432 9.4C76.7913 9.4 76.6313 9.592 76.6313 9.912V34.488C76.6313 34.808 76.7913 35 77.1432 35H80.4713C80.7913 35 80.9833 34.808 80.9833 34.488V9.912C80.9833 9.592 80.7913 9.4 80.4713 9.4H77.1432ZM97.5698 9.4C97.1858 9.4 96.9618 9.592 96.8658 9.976L93.3138 25.912L89.7618 9.976C89.6658 9.592 89.4418 9.4 89.0578 9.4H84.8338C84.4178 9.4 84.1938 9.624 84.1938 10.04V34.36C84.1938 34.776 84.4178 35 84.8338 35H87.7778C88.1938 35 88.4178 34.776 88.4178 34.36V19.96H88.6418L91.8098 34.424C91.9058 34.808 92.1298 35 92.5138 35H94.0818C94.4658 35 94.6898 34.808 94.7858 34.424L97.9538 19.96H98.1778V34.36C98.1778 34.776 98.4018 35 98.8178 35H101.794C102.21 35 102.434 34.776 102.434 34.36V10.04C102.434 9.624 102.21 9.4 101.794 9.4H97.5698ZM118.399 9.912C118.399 9.592 118.271 9.4 117.887 9.4H106.111C105.823 9.4 105.631 9.592 105.631 9.912V34.488C105.631 34.808 105.823 35 106.111 35H117.887C118.271 35 118.399 34.808 118.399 34.488V31.288C118.399 30.936 118.271 30.776 117.887 30.776H109.887V24.312H115.999C116.319 24.312 116.511 24.12 116.511 23.768V20.6C116.511 20.248 116.319 20.056 115.999 20.056H109.887V13.656H117.887C118.271 13.656 118.399 13.432 118.399 13.112V9.912Z" fill="#212121"/>
<path d="M134.432 14.008C134.432 11 132.8 9.4 129.792 9.4H122.112C121.792 9.4 121.6 9.56 121.6 9.912V34.488C121.6 34.808 121.792 35 122.112 35H129.792C132.8 35 134.432 33.4 134.432 30.392V24.504C134.432 23.32 133.568 22.424 132.416 22.232V22.168C133.568 21.976 134.432 21.08 134.432 19.896V14.008ZM130.176 18.84C130.176 19.64 129.728 20.088 128.896 20.088H125.984V13.624H128.896C129.76 13.624 130.176 14.072 130.176 14.904V18.84ZM130.176 29.496C130.176 30.36 129.728 30.776 128.896 30.776H125.984V24.312H128.896C129.76 24.312 130.176 24.76 130.176 25.592V29.496ZM141.983 30.776H149.599C149.951 30.776 150.111 30.968 150.111 31.288V34.488C150.111 34.84 149.951 35 149.599 35H138.143C137.823 35 137.631 34.84 137.631 34.488V9.912C137.631 9.592 137.823 9.4 138.143 9.4H141.471C141.823 9.4 141.983 9.592 141.983 9.912V30.776ZM168.118 35C168.502 35 168.63 34.808 168.566 34.456L163.254 9.848C163.19 9.528 162.998 9.4 162.71 9.4H158.262C157.974 9.4 157.782 9.528 157.718 9.848L152.406 34.456C152.31 34.808 152.47 35 152.822 35H156.246C156.534 35 156.694 34.84 156.758 34.552L157.622 29.88H163.318L164.214 34.552C164.278 34.84 164.438 35 164.726 35H168.118ZM162.518 26.168H158.422L160.47 15L162.518 26.168ZM172.212 9.4C171.892 9.432 171.7 9.592 171.7 9.944V13.144C171.7 13.464 171.892 13.656 172.212 13.656H178.836L170.868 34.232C170.676 34.68 170.836 35 171.348 35H183.796C184.116 34.968 184.308 34.776 184.308 34.456V31.288C184.308 30.936 184.116 30.776 183.796 30.776H176.756L184.724 10.168C184.884 9.72 184.756 9.4 184.244 9.4H172.212ZM187.35 30.392C187.35 33.4 188.95 35 191.958 35H195.542C198.55 35 200.15 33.4 200.15 30.392V14.008C200.15 11 198.55 9.4 195.542 9.4H191.958C188.95 9.4 187.35 11 187.35 14.008V30.392ZM192.886 30.872C192.054 30.872 191.606 30.456 191.606 29.592V14.808C191.606 13.976 192.054 13.528 192.886 13.528H194.742C195.574 13.528 196.022 13.976 196.022 14.808V29.592C196.022 30.456 195.574 30.872 194.742 30.872H192.886ZM216.502 14.008C216.502 11 214.902 9.4 211.894 9.4H203.862C203.542 9.4 203.35 9.592 203.35 9.912V34.488C203.35 34.808 203.542 35 203.862 35H207.19C207.51 35 207.702 34.808 207.702 34.488V26.424H209.91L212.054 34.552C212.118 34.84 212.278 35 212.598 35H215.926C216.278 35 216.47 34.808 216.374 34.424L214.166 26.04C215.702 25.368 216.502 23.96 216.502 21.816V14.008ZM207.702 22.2V13.624H210.87C211.702 13.624 212.15 14.072 212.15 14.904V20.92C212.15 21.752 211.702 22.2 210.87 22.2H207.702Z" fill="#5C2D91"/>
<path fill-rule="evenodd" clip-rule="evenodd" d="M27.1134 0.987775C23.9776 5.98762 20.9677 8.73068 16.489 10.6706C14.936 11.3432 13.141 11.9565 11.7804 12.2795C10.6665 12.544 11.4161 11.3931 11.9929 10.5335C13.5134 8.26762 13.8168 6.23671 14.1689 3.55423C14.2968 2.57947 14.0689 2.6048 12.8037 3.70595C10.0779 6.07778 6.98076 9.01584 3.7311 8.95492L2.46735 9.01584L2.64788 12.6989V16.5697H16.9896H31.3312L31.4291 16.0512C31.6187 15.0462 31.5348 10.0735 31.3043 8.65591C30.8484 5.85194 30.1348 3.62518 28.9856 1.41948C28.0446 -0.386486 27.9841 -0.400349 27.1134 0.987775Z" fill="#5C2D91"/>
<path d="M25.8696 22.1337L23.1304 21.5177L25.2609 24.5975V34.1447L32.5652 27.9852V17.514L29.2174 18.7459L25.8696 22.1337Z" fill="#5C2D91"/>
<path d="M8.82612 22.1337L11.5652 21.5177L9.43481 24.5975V34.1447L2.13046 27.9852V17.514L5.47829 18.7459L8.82612 22.1337Z" fill="#5C2D91"/>
<path fill-rule="evenodd" clip-rule="evenodd" d="M10.3478 25.2134L12.7826 21.5177L14.3043 22.4417H20.3913L21.913 21.5177L24.3478 25.2134V39.0724L22.5217 41.8442L20.3913 44H14.3043L12.1739 41.8442L10.3478 39.0724V25.2134Z" fill="#5C2D91"/>
<path d="M25.2609 39.9963L29.2174 35.9926V31.989L25.2609 35.3767V39.9963Z" fill="#5C2D91"/>
<path d="M9.43475 39.9963L5.47823 35.9926V31.989L9.43475 35.3767V39.9963Z" fill="#5C2D91"/>
<path fill-rule="evenodd" clip-rule="evenodd" d="M10.9525 15.6762L13.3826 12.9146H21.2803L23.7104 15.6762L20.0653 21.1994H14.9014L10.9525 15.6762Z" fill="#5C2D91"/>
<path d="M14.913 21.2098L1.82609 16.2821L0 8.58273L11.2609 9.50666L10.8322 11.7572L15.2174 21.2098H14.913Z" fill="#5C2D91"/>
<path d="M20.087 21.2098L33.1739 16.2821L35 8.58273L23.4348 9.50666L19.7826 21.2098H20.087Z" fill="#5C2D91"/>
</svg>
